<svg xmlns="http://www.w3.org/2000/svg"  viewBox="0 0 64 64" width="64px" height="64px"><linearGradient id="zgZpetKdLDEU6F205sbisa" x1="32" x2="32" y1="3.012" y2="60.266" gradientUnits="userSpaceOnUse"><stop offset="0" stop-color="#1a6dff"/><stop offset="1" stop-color="#c822ff"/></linearGradient><path fill="url(#zgZpetKdLDEU6F205sbisa)" d="M32,61c-0.3,0-0.6-0.1-0.8-0.4C24.6,52.8,15,46.2,4.2,42.2c-0.3-0.1-0.5-0.3-0.6-0.6c-0.1-0.3-0.1-0.6,0.1-0.9 l0.7-1c8.3-12.9,17-26.2,27-36.4c0.4-0.4,1.1-0.4,1.4,0C43,13.8,52,27.6,60.3,40.8c0.2,0.3,0.2,0.6,0.1,0.9 c-0.1,0.3-0.3,0.5-0.6,0.6c-10.9,4-20.5,10.5-27.1,18.4C32.6,60.9,32.3,61,32,61z M6,40.8c10.3,4,19.4,10.2,26,17.7 c6.5-7.5,15.7-13.7,26-17.7C50.1,28.3,41.6,15.4,32,5.4C22.4,15.4,14.1,28.3,6,40.8z"/><linearGradient id="zgZpetKdLDEU6F205sbisb" x1="25.5" x2="25.5" y1="53.5" y2="21.6" gradientTransform="matrix(1 0 0 -1 0 64)" gradientUnits="userSpaceOnUse"><stop offset="0" stop-color="#6dc7ff"/><stop offset="1" stop-color="#e6abff"/></linearGradient><path fill="url(#zgZpetKdLDEU6F205sbisb)" d="M11,39.5c6.5-9.7,13.5-20,21-29c2.4,3,4.8,6,7.2,9.2c-1.1-0.7-3.7-1.5-1,7.6l1.8,5.1l-10,10l-2-2l10-11 L36.6,28L26.1,40.2l-2.9-2.1L34,22.5L32,19L21,36.5l-9,3H11z"/><linearGradient id="zgZpetKdLDEU6F205sbisc" x1="32.1" x2="32.1" y1="2.982" y2="60.236" gradientUnits="userSpaceOnUse"><stop offset="0" stop-color="#1a6dff"/><stop offset="1" stop-color="#c822ff"/></linearGradient><path fill="url(#zgZpetKdLDEU6F205sbisc)" d="M54,39.4L54,39.4c0-0.2-0.1-0.3-0.1-0.4l0,0c-6.5-9.7-13.5-20-21.1-29.1l0,0c-0.2-0.2-0.4-0.3-0.7-0.3 s-0.6,0.1-0.7,0.3l0,0C23.8,19,16.8,29.2,10.3,39l0,0c-0.1,0.1-0.1,0.2-0.1,0.3v0.1c0,0.1,0,0.3,0,0.4l0,0l0,0l0,0 c0,0.1,0.1,0.2,0.2,0.3c0,0,0,0.1,0.1,0.1c0.1,0.1,0.2,0.1,0.3,0.2l0,0c8.5,3,15.4,7.6,20.6,13.7l0,0c0.1,0.1,0.1,0.1,0.2,0.2 c0,0,0.1,0,0.1,0.1c0.1,0.1,0.3,0.1,0.4,0.1s0.3,0,0.4-0.1c0,0,0.1,0,0.1-0.1c0.1,0,0.2-0.1,0.2-0.2l0,0C38,48,44.9,43.4,53.4,40.4 l0,0c0.1,0,0.2-0.1,0.3-0.2c0,0,0.1,0,0.1-0.1c0.1-0.1,0.1-0.2,0.2-0.3l0,0l0,0l0,0C54,39.7,54,39.5,54,39.4z M22.4,36.2L32,21.4 l9.6,14.9c-3.1,2-6.2,4.3-9.6,7C29.1,40.8,25.9,38.4,22.4,36.2z M20.4,35.7l-7,2.1c5.5-8.2,11.4-16.7,17.6-24.4v5.9L20.4,35.7z M33,19.2v-5.9c6.2,7.7,12.1,16.2,17.6,24.4l-7-2.1L33,19.2z M14.1,39.7l6.8-2c3.7,2.3,7.1,4.8,10.2,7.4v6 C26.4,46.2,20.7,42.4,14.1,39.7z M33,51v-6c3.6-2.9,6.9-5.3,10.2-7.4l6.8,2C43.3,42.4,37.6,46.2,33,51z"/></svg>